<svg xmlns="http://www.w3.org/2000/svg" aria-hidden="true" role="img" width="0.92em" height="1em" preserveAspectRatio="xMidYMid meet" viewBox="0 0 22 24"><path fill="white" d="M14.041 16.683a14.884 14.884 0 0 1-.035-.72c2.549-.261 4.338-.872 4.338-1.585c-.007 0-.006-.03-.006-.041C16.432 12.619 19.99.417 13.367.663a3.344 3.344 0 0 0-2.196-.664h.008C2.208.677 6.175 12.202 4.13 14.377h-.004c.008.698 1.736 1.298 4.211 1.566c-.007.17-.022.381-.054.734C7.256 19.447.321 18.671.001 24h22.294c-.319-5.33-7.225-4.554-8.253-7.317z"/></svg>